<svg id="Capa_1" enable-background="new 0 0 512 512" height="512" viewBox="0 0 512 512" width="512" xmlns="http://www.w3.org/2000/svg"><g><path d="m411.218 77.557-25.903-25.903c-3.367-3.367-8.827-3.367-12.194 0l-105.377 105.377-13.949 19.1-6.01.859-38.279 38.279-7.946 13.097-12.014 6.863-46.07 46.07 10.325 20.627 27.772 17.47 46.07-46.07 10.183-14.304 9.776-5.656 38.279-38.279 7.682-13.864 12.278-6.097 105.377-105.375c3.368-3.368 3.368-8.827 0-12.194z" fill="#c68d7a"/><path d="m411.218 77.557-19.668-19.668c3.367 3.367 3.367 8.827 0 12.194l-247.748 247.748 37.771 1.565 46.07-46.07 8.353-15.564 11.607-4.395 38.279-38.279 6.326-12.507 13.634-7.453 105.376-105.377c3.368-3.368 3.368-8.827 0-12.194z" fill="#bc7c63"/><path d="m143.476 281.299-141.082 141.081c-3.193 3.193-3.193 8.369 0 11.561l26.536 26.536c3.193 3.193 8.369 3.193 11.561 0l141.082-141.082z" fill="#918291"/><path d="m40.492 460.477 141.082-141.082-19.668-19.668-141.083 141.082c-3.193 3.193-8.369 3.193-11.561 0l19.668 19.668c3.193 3.193 8.369 3.193 11.562 0z" fill="#7a6d79"/><path d="m451.873 313.973c-41.033 41.033-70.247 54.097-123.292 44.219-5.606-1.044-15.748-1.433-15.697-7.135l-10.679-29.641.135-15.025c.033-3.639 2.324-6.874 5.746-8.112l15.748-5.697c54.242-19.613 69.691-88.964 28.901-129.754l-71.481-71.481c-3.12-3.12-3.12-8.178 0-11.298l23.021-23.021c3.12-3.12 8.178-3.12 11.298 0l113.331 113.331c11.194 11.194 25.264 16.969 39.438 17.815 10.521.628 16.026 11.556 25.529 6.954 5.599-2.712 7.514 2.938 7.965 9.143 3.443 47.353-13.753 73.492-49.963 109.702z" fill="#918291"/><path d="m498.983 182.09c-9.512 4.611-20.104 6.698-30.639 6.069 3.908 36.68-8.186 74.742-36.301 102.857-35.119 35.119-85.758 45.246-129.837 30.399l-.313 34.974c-.051 5.702 3.974 10.664 9.58 11.708 53.045 9.879 109.891-5.689 150.925-46.722 36.211-36.211 52.598-84.734 49.155-132.091-.451-6.189-6.987-9.9-12.57-7.194z" fill="#deecf1"/><path d="m511.552 189.283c-.45-6.188-6.986-9.899-12.569-7.193-2.757 1.337-5.607 2.454-8.518 3.362 1.884 44.568-12.734 87.709-44.534 119.51-37.593 37.593-91.035 51.163-143.952 41.854l-.086 9.574c-.051 5.702 3.974 10.664 9.58 11.708 53.045 9.879 109.891-5.689 150.925-46.722 36.21-36.213 52.597-84.736 49.154-132.093z" fill="#cbe5e8"/><path d="m355.832 70.694-16.127 4.525-43.674 43.674 1.555 15.378 31.012 31.012 15.377 1.562 43.682-43.682 4.518-16.127z" fill="#fea95c"/><path d="m373.386 88.247-60.912 60.912 16.124 16.124 15.377 1.562 43.682-43.682 4.518-16.127z" fill="#fe860a"/><path d="m267.744 157.031-19.959 19.959-6.619 31.659-31.66 6.62-19.96 19.96 48.168-10.071-10.07 48.168 19.959-19.96 6.619-31.66 31.66-6.619 19.96-19.96-48.168 10.071z" fill="#918291"/><path d="m236.147 225.486 1.567-.328-10.07 48.168 19.959-19.96 6.619-31.66 31.66-6.619 19.96-19.96-48.168 10.071.327-1.566z" fill="#7a6d79"/><path d="m393.247 108.108-1.072-1.072-41.455 5.112 5.112-41.455-1.068-1.068c-2.614-2.614-6.852-2.614-9.466 0l-5.593 5.593-4.795 38.879-38.879 4.795-2.179 2.179c-2.614 2.614-2.614 6.852 0 9.466l3.734 3.734 35.374-4.363-4.362 35.375 3.736 3.736c2.614 2.614 6.852 2.614 9.466 0l2.174-2.174 4.796-38.886 38.887-4.796 5.59-5.59c2.613-2.613 2.613-6.851 0-9.465z" fill="#918291"/><path d="m392.175 107.036-41.455 5.112.174-1.41-19.344 19.344 1.41-.174-4.362 35.375 3.736 3.736c2.614 2.614 6.852 2.614 9.466 0l2.174-2.174 4.796-38.886 38.887-4.796 5.59-5.59c2.614-2.614 2.614-6.852 0-9.466z" fill="#7a6d79"/></g></svg>