<svg id="Layer_1" height="512" viewBox="0 0 512 512" width="512" xmlns="http://www.w3.org/2000/svg"><g><g><path d="m216 344-48-48 234.343-234.343c3.124-3.124 8.19-3.124 11.314 0l36.686 36.686c3.124 3.124 3.124 8.19 0 11.314z" fill="#f06423"/></g><g><g><path d="m264 200-96 96 24 24 84.686-84.686c6.248-6.248 6.248-16.379 0-22.627z" fill="#faa019"/></g><g><path d="m426.343 74.343-12.686-12.687c-3.124-3.124-8.19-3.124-11.314 0l-122.343 122.344 24 24 122.343-122.343c3.124-3.124 3.124-8.19 0-11.314z" fill="#faa019"/></g></g><g><path d="m218.343 346.343-52.686-52.686c-3.124-3.124-8.19-3.124-11.314 0l-132.686 132.686c-3.124 3.124-3.124 8.19 0 11.314l52.686 52.686c3.124 3.124 8.19 3.124 11.314 0l132.686-132.686c3.124-3.124 3.124-8.19 0-11.314z" fill="#a55023"/></g><g><path d="m187.676 315.676-22.02-22.02c-3.124-3.124-8.19-3.124-11.314 0l-132.685 132.687c-3.124 3.124-3.124 8.19 0 11.314l22.02 22.02c3.124 3.124 8.19 3.124 11.314 0l132.685-132.687c3.125-3.124 3.125-8.189 0-11.314z" fill="#d26e28"/></g><g><path d="m385.373 289.373-162.746-162.746c-12.497-12.497-12.497-32.758 0-45.255l58.745-58.745c12.497-12.497 32.758-12.497 45.255 0l162.745 162.745c12.497 12.497 12.497 32.758 0 45.255l-58.745 58.745c-12.496 12.497-32.758 12.497-45.254.001z" fill="#463c4b"/></g><g><path d="m321.373 225.373-98.745-98.745c-12.497-12.497-12.497-32.758 0-45.255l58.745-58.745c12.497-12.497 32.758-12.497 45.255 0l98.745 98.745c12.497 12.497 12.497 32.758 0 45.255l-58.745 58.745c-12.497 12.496-32.759 12.496-45.255 0z" fill="#555a6e"/></g><g><path d="m419.716 135.03c-2.048 0-4.095-.781-5.657-2.343l-98.746-98.745c-3.021-3.022-7.039-4.686-11.313-4.686s-8.291 1.664-11.313 4.686l-58.747 58.746c-3.125 3.125-8.19 3.124-11.313 0-3.125-3.124-3.125-8.189 0-11.314l58.746-58.745c6.043-6.044 14.079-9.373 22.627-9.373s16.584 3.329 22.627 9.373l98.746 98.745c3.124 3.124 3.124 8.189 0 11.313-1.562 1.562-3.609 2.343-5.657 2.343z" fill="#73788c"/></g></g></svg>