<svg xmlns="http://www.w3.org/2000/svg" version="1.1" xmlns:xlink="http://www.w3.org/1999/xlink" width="512" height="512" x="0" y="0" viewBox="0 0 512 512" style="enable-background:new 0 0 512 512" xml:space="preserve" class=""><g><path d="M378.169 99.957c-18.549 0-34.136 12.878-38.317 30.159V94.959c0-21.741-17.687-39.427-39.427-39.427-18.549 0-34.136 12.878-38.317 30.159V39.427C262.108 17.687 244.422 0 222.681 0s-39.427 17.687-39.427 39.427V85.69c-4.18-17.281-19.768-30.159-38.317-30.159-21.741 0-39.427 17.687-39.427 39.427V484.234h278.768v-72.45l5.013-3.342a63.437 63.437 0 0 0 28.305-52.89V139.384c.001-21.741-17.686-39.427-39.427-39.427z" style="" fill="#b26703" data-original="#ed8800" opacity="1"></path><path d="M260.998 245.449V94.959c0-21.741 17.687-39.427 39.427-39.427s39.427 17.687 39.427 39.427v150.49h-78.854z" style="" fill="#b26703" data-original="#ed8800" opacity="1"></path><path d="M316.807 59.11a39.18 39.18 0 0 0-16.382-3.578c-21.741 0-39.427 17.687-39.427 39.427v150.49h32.764V94.959c-.001-15.897 9.462-29.617 23.045-35.849z" style="" fill="#945400" data-original="#cc7400" class="" opacity="1"></path><path d="M183.254 245.449V39.427C183.254 17.687 200.941 0 222.681 0s39.427 17.687 39.427 39.427v206.022h-78.854z" style="" fill="#b26703" data-original="#ed8800" opacity="1"></path><path d="M239.063 3.578A39.18 39.18 0 0 0 222.681 0c-21.741 0-39.427 17.687-39.427 39.427v206.022h32.764V39.427c-.001-15.896 9.462-29.617 23.045-35.849z" style="" fill="#945400" data-original="#cc7400" class="" opacity="1"></path><path d="M105.51 245.449V94.959c0-21.741 17.687-39.427 39.427-39.427s39.427 17.687 39.427 39.427v150.49H105.51z" style="" fill="#b26703" data-original="#ed8800" opacity="1"></path><path d="M161.319 59.11a39.18 39.18 0 0 0-16.382-3.578c-21.741 0-39.427 17.687-39.427 39.427v150.49h32.764V94.959c-.001-15.897 9.462-29.617 23.045-35.849zM105.51 484.234V322.238l84.088-28.029a38.453 38.453 0 0 1 12.178-1.992c7.983 0 15.677 2.506 22.251 7.246 10.085 7.268 15.869 18.566 15.869 31 0 15.717-9.429 29.643-24.022 35.48l-8.652 3.461c-13.886 5.553-22.858 18.805-22.858 33.76v81.072H105.51z" style="" fill="#945400" data-original="#cc7400" class="" opacity="1"></path><path d="M138.273 359.32c0-16.839 10.775-31.788 26.749-37.114l57.337-19.113c1.539-.513 3.103-.897 4.675-1.214a39.32 39.32 0 0 0-3.009-2.418c-6.575-4.74-14.269-7.246-22.251-7.246-4.114 0-8.212.671-12.178 1.992l-84.087 28.03v161.996h32.764V359.32z" style="" fill="#aa6101" data-original="#aa6101" class=""></path><path d="M338.742 245.449V139.384c0-21.741 17.687-39.427 39.427-39.427 21.741 0 39.427 17.687 39.427 39.427v106.065h-78.854z" style="" fill="#b26703" data-original="#ed8800" opacity="1"></path><path d="M394.551 103.535a39.18 39.18 0 0 0-16.382-3.578c-21.741 0-39.427 17.687-39.427 39.427v106.065h32.764V139.384c-.001-15.896 9.462-29.617 23.045-35.849z" style="" fill="#945400" data-original="#cc7400" class="" opacity="1"></path><path d="M111.618 512c-9.493 0-17.215-7.722-17.215-17.215 0-9.493 7.722-17.215 17.215-17.215h277.657c9.493 0 17.215 7.722 17.215 17.215 0 9.493-7.722 17.215-17.215 17.215H111.618z" style="" fill="#aa6101" data-original="#aa6101" class=""></path></g></svg>