<svg xmlns="http://www.w3.org/2000/svg" version="1.1" xmlns:xlink="http://www.w3.org/1999/xlink" width="512" height="512" x="0" y="0" viewBox="0 0 512 512" style="enable-background:new 0 0 512 512" xml:space="preserve" class=""><g><path fill="#b4300f" d="M512 256c0 141.387-114.613 256-256 256S0 397.387 0 256 114.613 0 256 0s256 114.613 256 256zm0 0" opacity="1" data-original="#f05e3a" class=""></path><path fill="#811403" d="M508.043 301.074 307.125 100.156h-62.242L75.219 369.106l139.578 139.578A257.646 257.646 0 0 0 256 512c126.004 0 230.746-91.035 252.043-210.926zm0 0" opacity="1" data-original="#d9351c" class=""></path><g fill="#ffce00"><path d="m343.14 262.133-28.367-13.602c-18.41-8.828-38.183-13.3-58.773-13.3-20.586 0-40.36 4.472-58.773 13.3l-28.368 13.602-3.039-31.313a183.45 183.45 0 0 1-.855-17.59c0-59.55 29.39-115.187 78.625-148.828L256 55.918l12.41 8.484c49.235 33.641 78.63 89.278 78.63 148.828 0 5.817-.29 11.735-.856 17.59zM256 191.23c15.762 0 31.172 1.989 46.09 5.93-3.996-33.652-20.43-64.633-46.09-86.863-25.66 22.23-42.094 53.21-46.09 86.863 14.918-3.941 30.328-5.93 46.09-5.93zm0 0" fill="#b89503" opacity="1" data-original="#ffce00" class=""></path><path d="M345.113 393.383c-36.43 0-71.535-10.832-101.523-31.324l-26.582-18.164 26.582-18.165c33.469-22.87 54.898-59.015 58.797-99.16l3.039-31.312 28.37 13.597c27.56 13.215 51.497 33.407 69.224 58.399 18.097 25.512 29.257 55.437 32.277 86.539l1.484 15.312-13.87 6.653c-24.4 11.695-50.571 17.625-77.798 17.625zm-50.082-53.504c15.817 6.262 32.75 9.504 50.082 9.504 15.137 0 29.836-2.422 43.875-7.211-6.824-30.906-24.418-58.633-49.226-78.098-8.375 28.578-23.73 54.598-44.73 75.805zm0 0" fill="#b89503" opacity="1" data-original="#ffce00" class=""></path><path d="M166.887 393.383c-27.227 0-53.399-5.93-77.797-17.625l-13.871-6.653 1.484-15.312c3.02-31.105 14.184-61.031 32.277-86.54 17.727-24.991 41.665-45.187 69.223-58.398l28.371-13.601 3.04 31.312c3.894 40.149 25.327 76.29 58.796 99.164l26.582 18.165-26.582 18.164c-29.988 20.492-65.094 31.324-101.523 31.324zm-43.875-51.211c14.039 4.789 28.738 7.21 43.875 7.21 17.332 0 34.265-3.241 50.082-9.503-21-21.207-36.356-47.227-44.73-75.805-24.81 19.465-42.403 47.192-49.227 78.098zm0 0" fill="#b89503" opacity="1" data-original="#ffce00" class=""></path><path d="m256 370.54-12.41-8.481c-44.266-30.246-72.61-78.082-77.774-131.239l-1.484-15.312 13.871-6.653c24.399-11.695 50.57-17.625 77.797-17.625s53.398 5.93 77.797 17.625l13.871 6.653-1.484 15.312c-5.16 53.157-33.508 100.993-77.774 131.239zm-43.895-128.095c6.254 28.657 21.614 54.461 43.895 73.73 22.281-19.269 37.64-45.073 43.895-73.73-14.047-4.793-28.75-7.215-43.895-7.215s-29.848 2.422-43.895 7.215zm0 0" fill="#b89503" opacity="1" data-original="#ffce00" class=""></path><path d="m243.59 325.73-26.582 18.165 26.582 18.164a181.585 181.585 0 0 0 12.41 7.757v-53.652a138.1 138.1 0 0 1-12.41 9.566zM294.992 343.895 268.41 325.73a138.1 138.1 0 0 1-12.41-9.566v53.652a180.07 180.07 0 0 0 12.41-7.757zm0 0" fill="#b89503" opacity="1" data-original="#ffce00" class=""></path></g><path fill="#ba7804" d="M435.297 353.793c-3.02-31.105-14.184-61.031-32.277-86.54-17.727-24.991-41.665-45.187-69.223-58.398l-28.371-13.601-3.04 31.312c-3.39 34.934-20.062 66.832-46.386 89.598v53.652c27.078 15.454 57.602 23.567 89.113 23.567 27.227 0 53.399-5.934 77.797-17.63l13.871-6.648zm-90.184-4.41c-17.332 0-34.265-3.242-50.082-9.504 21-21.207 36.356-47.227 44.73-75.805 24.813 19.465 42.403 47.192 49.227 78.098-14.039 4.789-28.738 7.21-43.875 7.21zm0 0" opacity="1" data-original="#ffa300" class=""></path><path fill="#ba7804" d="M268.41 64.402 256 55.918v54.379c25.66 22.23 42.094 53.21 46.09 86.863-14.918-3.945-30.328-5.93-46.09-5.93v44c20.59 0 40.363 4.473 58.773 13.301l28.368 13.602 3.039-31.313c.57-5.855.855-11.773.855-17.59.004-59.55-29.39-115.187-78.625-148.828zm0 0" opacity="1" data-original="#ffa300" class=""></path><path fill="#ba7804" d="M333.797 208.855C309.398 197.16 283.227 191.23 256 191.23v44c15.145 0 29.848 2.422 43.895 7.215-6.254 28.657-21.614 54.461-43.895 73.727v54.367l12.41-8.48c44.266-30.25 72.61-78.082 77.774-131.239l1.484-15.312zm0 0" opacity="1" data-original="#ffa300" class=""></path></g></svg>