<svg xmlns="http://www.w3.org/2000/svg" height="512pt" version="1.1" viewBox="0 0 512 512" width="512pt">
<g id="surface1">
<path d="M 451 440.199219 L 451 497 C 451 505.398438 444.402344 512 436 512 L 391 512 L 361 482 L 151 482 L 121 512 L 76 512 C 67.597656 512 61 505.398438 61 497 L 61 440.199219 C 61 399.398438 84.699219 362.800781 121 345.398438 L 136 391 L 151 337 L 181 331 L 211 421 L 301 421 L 331 331 L 361 336.699219 L 376 391 L 391 345.699219 C 427.898438 363.699219 451 399.699219 451 440.199219 Z M 451 440.199219 " style=" stroke:none;fill-rule:nonzero;fill:rgb(49.411765%,36.470588%,25.098039%);fill-opacity:1;" />
<path d="M 451 440.199219 L 451 497 C 451 505.398438 444.402344 512 436 512 L 391 512 L 361 482 L 256 482 L 256 421 L 301 421 L 331 331 L 361 336.699219 L 376 391 L 391 345.699219 C 427.898438 363.699219 451 399.699219 451 440.199219 Z M 451 440.199219 " style=" stroke:none;fill-rule:nonzero;fill:rgb(40.784314%,30.196078%,20.392157%);fill-opacity:1;" />
<path d="M 331 331 L 331 451 L 181 451 L 181 331 L 191.199219 301.300781 C 193.300781 293.199219 201.398438 288.398438 209.5 290.5 L 302.5 290.5 C 310.601562 288.398438 318.699219 293.199219 320.800781 301.300781 Z M 331 331 " style=" stroke:none;fill-rule:nonzero;fill:rgb(100%,73.333333%,52.156863%);fill-opacity:1;" />
<path d="M 320.800781 301.300781 L 331 331 L 331 451 L 256 451 L 256 290.5 L 302.5 290.5 C 310.601562 288.398438 318.699219 293.199219 320.800781 301.300781 Z M 320.800781 301.300781 " style=" stroke:none;fill-rule:nonzero;fill:rgb(96.078431%,65.882353%,42.352941%);fill-opacity:1;" />
<path d="M 151 241 L 106 241 C 81.148438 241 61 220.851562 61 196 C 61 171.148438 81.148438 151 106 151 L 151 151 Z M 151 241 " style=" stroke:none;fill-rule:nonzero;fill:rgb(100%,73.333333%,52.156863%);fill-opacity:1;" />
<path d="M 406 241 L 361 241 L 361 151 L 406 151 C 430.851562 151 451 171.148438 451 196 C 451 220.851562 430.851562 241 406 241 Z M 406 241 " style=" stroke:none;fill-rule:nonzero;fill:rgb(96.078431%,65.882353%,42.352941%);fill-opacity:1;" />
<path d="M 391 121 L 391 196 C 391 270.699219 330.699219 331 256 331 C 181.300781 331 121 270.699219 121 196 L 121 121 Z M 391 121 " style=" stroke:none;fill-rule:nonzero;fill:rgb(99.215686%,81.960784%,63.921569%);fill-opacity:1;" />
<path d="M 391 121 L 391 196 C 391 270.699219 330.699219 331 256 331 L 256 121 Z M 391 121 " style=" stroke:none;fill-rule:nonzero;fill:rgb(100%,73.333333%,52.156863%);fill-opacity:1;" />
<path d="M 391 106 C 391 114.398438 384.402344 121 376 121 L 136 121 C 127.597656 121 121 114.398438 121 106 C 121 48.101562 168.101562 0 226 0 L 286 0 C 343.898438 0 391 48.101562 391 106 Z M 391 106 " style=" stroke:none;fill-rule:nonzero;fill:rgb(57.647059%,74.901961%,0%);fill-opacity:1;" />
<path d="M 391 106 C 391 114.398438 384.402344 121 376 121 L 256 121 L 256 0 L 286 0 C 343.898438 0 391 48.101562 391 106 Z M 391 106 " style=" stroke:none;fill-rule:nonzero;fill:rgb(50.588235%,65.490196%,7.45098%);fill-opacity:1;" />
<path d="M 151 421 L 151 336.925781 L 131.546875 340.769531 C 127.875 342.046875 124.453125 343.753906 121 345.402344 L 121 421 L 136 451 Z M 151 421 " style=" stroke:none;fill-rule:nonzero;fill:rgb(57.647059%,74.901961%,0%);fill-opacity:1;" />
<path d="M 391 421 L 391 345.671875 C 386.925781 343.683594 382.804688 341.746094 378.402344 340.226562 L 361 336.824219 L 361 421 L 376 451 Z M 391 421 " style=" stroke:none;fill-rule:nonzero;fill:rgb(50.588235%,65.490196%,7.45098%);fill-opacity:1;" />
<path d="M 121 421 L 391 421 L 391 512 L 121 512 Z M 121 421 " style=" stroke:none;fill-rule:nonzero;fill:rgb(65.882353%,82.745098%,16.470588%);fill-opacity:1;" />
<path d="M 296.5 236.5 C 285.398438 247.898438 270.699219 253.300781 256 253.300781 C 241.300781 253.300781 226.601562 247.898438 215.5 236.5 C 209.5 230.800781 209.5 221.199219 215.5 215.5 C 221.199219 209.5 230.800781 209.5 236.5 215.5 C 241.902344 220.601562 248.800781 223.300781 256 223.300781 C 263.199219 223.300781 270.101562 220.601562 275.503906 215.5 C 281.203125 209.5 290.800781 209.5 296.5 215.5 C 302.5 221.199219 302.5 230.800781 296.5 236.5 Z M 296.5 236.5 " style=" stroke:none;fill-rule:nonzero;fill:rgb(97.254902%,58.431373%,50.196078%);fill-opacity:1;" />
<path d="M 296.5 236.5 C 285.398438 247.898438 270.699219 253.300781 256 253.300781 L 256 223.300781 C 263.199219 223.300781 270.097656 220.601562 275.5 215.5 C 281.199219 209.5 290.800781 209.5 296.5 215.5 C 302.5 221.199219 302.5 230.800781 296.5 236.5 Z M 296.5 236.5 " style=" stroke:none;fill-rule:nonzero;fill:rgb(92.54902%,50.196078%,41.960784%);fill-opacity:1;" />
<path d="M 256 421 L 391 421 L 391 512 L 256 512 Z M 256 421 " style=" stroke:none;fill-rule:nonzero;fill:rgb(57.647059%,74.901961%,0%);fill-opacity:1;" />
<path d="M 512 106 C 512 130.898438 491.902344 151 467 151 L 45 151 C 20.097656 151 0 130.898438 0 106 C 0 97.597656 6.597656 91 15 91 L 497 91 C 505.402344 91 512 97.597656 512 106 Z M 512 106 " style=" stroke:none;fill-rule:nonzero;fill:rgb(65.882353%,82.745098%,16.470588%);fill-opacity:1;" />
<path d="M 512 106 C 512 130.898438 491.902344 151 467 151 L 256 151 L 256 91 L 497 91 C 505.402344 91 512 97.597656 512 106 Z M 512 106 " style=" stroke:none;fill-rule:nonzero;fill:rgb(57.647059%,74.901961%,0%);fill-opacity:1;" />
</g>
</svg>