<svg id="Layer_1" enable-background="new 0 0 462.998 462.998" height="512" viewBox="0 0 462.998 462.998" width="512" xmlns="http://www.w3.org/2000/svg"><g><g fill="#00d2a9"><path d="m237.883 424.978c-14.957 8.626-27.517-13.293-38.824-2.358-18.966 18.342-39.211 19.556-40.669 16.368-1.326-2.899 20.826-26.576 13.154-30.675-9.199-4.915-31.452 21.668-38.342 12.175-3.73-5.139-.791-13.743-4.823-17.214-5.178-4.458-13.04 7.136-26.652 11.768-16.592 5.646-34.024-1.672-34.395-7.945-.463-7.837 29.154-8.318 37.057-57.385l11.053-15.121 224.209 12.026c21.083 6.815 28.964 18.133 32.096 27.751 3.293 10.109 1.44 18.648 7.513 31.725 6.07 13.073 13.236 15.986 12.178 19.756-1.584 5.648-19.73 6.492-36.536-1.948-19.438-9.763-28.35-24.6-33.105-24.236-21.338 1.634-10.357 30.482-16.227 40.363-6.315 10.63-47.656-27.473-58.285-22.861-4.901 2.126-4.034 4.715-9.402 7.811z"/><path d="m185.823 74.061c-9.499 18.383-24.894 20.968-25.159 24.341-.352 4.481 12.055 14.11 23.491 9.702 5.547-2.138 13.784-8.704 13.607-17.702-.229-11.559-8.529-22.94-11.939-16.341z"/><path d="m291.543 78.104c9.499 18.383 24.894 20.968 25.159 24.341.352 4.481-12.055 14.11-23.491 9.702-5.547-2.138-13.784-8.704-13.607-17.702.229-11.56 8.529-22.941 11.939-16.341z"/><path d="m150.423 144.466c-14.385 27.839-37.7 31.753-38.101 36.861-.534 6.786 18.255 21.369 35.574 14.693 8.401-3.238 20.875-13.181 20.606-26.808-.345-17.505-12.914-34.74-18.079-24.746z"/><path d="m310.525 150.588c14.385 27.839 37.7 31.753 38.101 36.861.534 6.786-18.255 21.369-35.574 14.693-8.401-3.238-20.875-13.181-20.606-26.808.346-17.505 12.915-34.74 18.079-24.746z"/><path d="m120.457 228.218c-19.69 38.106-51.603 43.463-52.152 50.455-.73 9.288 24.988 29.249 48.693 20.111 11.499-4.432 28.573-18.042 28.205-36.694-.473-23.96-17.677-47.552-24.746-33.872z"/><path d="m339.601 236.598c19.69 38.106 51.603 43.463 52.152 50.455.73 9.288-24.988 29.249-48.693 20.111-11.499-4.432-28.573-18.042-28.205-36.694.473-23.96 17.677-47.552 24.746-33.872z"/></g><path d="m266.157 458.36c-4.74 7.47-61.06 4.75-68.96 0-2.47-1.48-2.98-10.9-2.52-23.15 1.01-26.94 11.642-68.978 11.642-68.978l32.688 4.018 20.83 1.45s11.06 79.2 6.32 86.66z" fill="#3e3e7a"/><path d="m239.937 440.36c-7.94 3.97-35.5-.56-45.26-5.15 1.01-26.94 6.73-67.58 6.73-67.58l37.6 2.62c2.36 16.29 8.89 66.12.93 70.11z" fill="#51518e"/><path d="m405.847 381.85c-39.7 17.28-73.04-34.83-80.87-19.12-5.08 10.2 18.09 35.83 12.19 48.05-4.84 10.04-30.01 6.88-48.48-7.521-16-12.479-21.07-31.74-26.93-25.46-10.81 11.57-18.89 45.9-48.22 49.37-4.7.56 11.52-40.11 3.33-46.77-5.27-4.28-13.04 8.32-34.12 29.8-20.4 20.8-45.42 30.01-49.38 23.15-2.86-4.97 7.45-14.66 10.33-38.77.87-7.24 3.32-27.74-3.59-33.56-8.46-7.11-21.05 16.08-48.93 21.41-14.26 2.73-32.63.81-34.57-7.52-1.99-8.57 15.03-16.98 31.04-38.1.73-.97 1.45-1.96 2.18-2.98 22.04-30.99 50.578-64.084 61.258-88.194 24.33-54.91 79.822-73.266 126.562-47.516 14.45 7.96 27.22 19.82 36.63 35.61 11.06 18.58 20.09 32.29 36.81 67.12 25.17 52.451 60.93 78.321 54.76 81.001z" fill="#00e9b1"/><path d="m351.087 340.96c-4.04 3.72-29.66-25.31-43.92-17.88-12.22 6.37-4.96 33.71-14.81 37.79-10.77 4.46-28.66-36.5-39.31-33.19-9.5 2.95-6.27 37.99-10.22 38.3-3.7.29-3.45-30.78-15.83-35.24-18.26-6.58-52.07 49.01-59.74 44.43-6.02-3.59 13.93-38.3 4.59-46.47-12.59-11.02-63.59 39.35-80.17 27.06-1.78-1.32-5.26-4.92-4.03-18.95.73-.97 1.45-1.96 2.18-2.98 22.04-30.99 41.84-67.31 52.52-91.42 24.33-54.91 88.56-70.04 135.3-44.29 5.57 11.58 7.46 27.93 21.35 57.05 23.88 50.05 56.46 81.75 52.09 85.79z" fill="#88ffc3"/><path d="m348.587 262.16c-21.94 1.36-37.38-16.21-41.02-9.73-3.97 7.1 14.37 28.42 10.06 38.89-4.62 11.24-33.33 5.11-55.71-8.64-18.46-11.34-21.99-21.34-32.5-19.44-16.94 3.06-21.95 33.38-32.5 29.16-12.56-5.02-11.15-37.73-24.77-43.21-10.75-4.32-16.97 13.93-34.82 21.61-27.69 11.9-61.86-10.89-61.9-25.93-.03-8.59 11.09-11.49 27.33-22.36 6.46-4.32 17.479-10.025 25.179-17.725 19.19-19.21 27.581-41.754 34.931-58.205h121.49c44.25 88.52 100.91 70.88 102.15 88.57.71 10.22-18.59 25.81-37.92 27.01z" fill="#00e9b1"/><path d="m317.897 221.98c-6.52 7.33-27.73-14.65-37.79-6.13-9.07 7.68 1.62 30.6-4.6 33.7-6.54 3.27-17.88-22.34-35.74-22.47-17.9-.12-28.56 25.43-36.77 21.96-8.02-3.39.55-28.53-8.68-33.7-8.74-4.91-21.43 14.86-51.06 23.49-2.49.72-34.41 9.74-41.87-1.53-1.83-2.77-2.08-6.59 1.37-14.79 6.46-4.32 13.72-9.9 21.42-17.6 19.19-19.21 31.34-41.88 38.69-58.33h103.39c7.6 14.13 7.33 29.71 25.08 48.84 13.98 15.07 30.64 21.96 26.56 26.56z" fill="#88ffc3"/><path d="m337.037 158.61c-.03 12.06-23.28 30.32-42.11 20.78-12.15-6.15-16.38-20.78-23.69-17.31-9.27 4.38-8.31 30.59-16.85 34.62-7.17 3.38-10.58-20.92-22.1-23.37-7.16-1.52-9.56 6.49-22.11 15.58-15.23 11.01-34.76 15.92-37.9 6.92-2.93-8.39 9.55-25.47 6.84-31.16-2.47-5.2-12.98 8.88-27.9 7.79-13.15-.96-26.28-13.45-25.79-21.64.18-3.04 2.09-4.77 5.28-6.31 11.69-5.69 45.314-6.453 68.974-62.193l77.876-2.467c4.99 13.18 13.26 31.35 26.32 46.74 18.39 21.68 33.18 22.4 33.16 32.02z" fill="#00e9b1"/><path d="m296.447 151.51c-7.83 2.892-21.12-21.02-32.68-15.83-8.71 3.9-7.88 21.27-12.77 21.44-4.47.16-4.62-14.4-12.25-17.36-13.36-5.18-37.26 30-42.39 26.56-3.53-2.38 7.3-19.42 2.05-24.51-5.3-5.13-19.42 9.14-40.85 9.19-8.43.02-19-2.16-26.85-6.49 11.69-5.69 40.54-8.92 64.2-64.66h56.72c2.72 6.97 54.565 68.06 44.82 71.66z" fill="#88ffc3"/><path d="m302.997 76.39c.3 8.63-17.94 20.49-30.02 20.77-11.82.28-14.96-10.7-24.74-6.92-9.34 3.61-11.85 15.7-18.95 13.85-4.95-1.29-4.94-7.48-10.53-12.99-10.72-10.57-19.48 3.61-35.27-2.59-9.72-3.82-19.13-14.21-18.42-19.91.26-2.09 1.8-2.87 4.27-3.2 6.04-.82 22.234 1.552 34.514-6.658 12.26-8.2 15.266-23.392 21.036-35.952 0 0 0 .01 0 0 6.19-13.46 10.31-24.5 15.98-22.57 7.18 2.45 4.71 21.6 15.79 41.55 16.18 29.13 45.93 22.89 46.34 34.62z" fill="#00e9b1"/><path d="m272.187 74.66c-.95 2.77-8.06 3.72-13.27 2.3-6.03-1.65-6.62-5.67-10.47-5.88-8.03-.42-12.42 16.68-18.13 15.83-4.58-.67-2.86-11.84-9.7-15.83-7.79-4.54-16.23 6.35-30.13 5.11-8.23-.73-16.71-5.57-21.15-10.79 6.04-.82 17.67 1.02 29.95-7.19 12.26-8.2 19.83-22.86 25.6-35.42 0 0 0 .01 0 0 2.99-3.81 5.24-6.44 7.73-5.83 5.26 1.29 1.61 14.62 9.19 28.85 10.22 19.17 32.16 23.69 30.38 28.85z" fill="#88ffc3"/></g></svg>