<svg height="496pt" viewBox="0 -40 496 496" width="496pt" xmlns="http://www.w3.org/2000/svg"><g fill="#965353"><path d="m368 32h-8.078125v320h8.078125c26.398438 0 48-21.601562 48-48v-224c0-26.398438-21.601562-48-48-48zm0 0"/><path d="m368 32h-8.078125v320h8.078125c26.398438 0 48-21.601562 48-48v-224c0-26.398438-21.601562-48-48-48zm0 0"/><path d="m311.921875 272.078125v79.921875h-207.921875v-79.921875zm0 0"/><path d="m104 192.078125h207.921875v80h-207.921875zm0 0"/><path d="m104 112h207.921875v80.078125h-207.921875zm0 0"/><path d="m311.921875 32v80h-207.921875v-80zm0 0"/><path d="m56 32v80h-56v-32c0-26.398438 21.601562-48 48-48zm0 0"/><path d="m0 112h56v80.078125h-56zm0 0"/><path d="m0 192.078125h56v80h-56zm0 0"/><path d="m56 272.078125v79.921875h-8c-26.398438 0-48-21.601562-48-48v-31.921875zm0 0"/></g><path d="m456 183.839844c-4.425781 0-8-3.574219-8-8v-31.878906c0-4.425782 3.574219-8 8-8s8 3.574218 8 8v31.878906c0 4.425781-3.574219 8-8 8zm0 0" fill="#edab37"/><path d="m464 175.839844c17.679688 0 32 14.3125 32 32v32.160156h-32v-32.160156h-48v-31.839844h48zm0 0" fill="#f6bb42"/><path d="m0 104.015625h415.96875v16h-415.96875zm0 0" fill="#844747"/><path d="m0 184.015625h415.96875v16h-415.96875zm0 0" fill="#844747"/><path d="m0 264.015625h415.96875v16h-415.96875zm0 0" fill="#844747"/><path d="m232 0-8 32h-32.078125l-7.921875-32zm0 0" fill="#656d78"/><path d="m109.039062 376h197.921876l3.039062 24h-204zm0 0" fill="#773e3e"/><path d="m112 352-2.960938 24-3.039062 24-2 16h-48l-8-64zm0 0" fill="#844747"/><path d="m359.921875 352h8.078125l-8 64h-48l-2-16-3.039062-24-2.960938-24zm0 0" fill="#844747"/><path d="m472 159.96875h-32c-4.425781 0-8-3.578125-8-8 0-4.425781 3.574219-8 8-8h32c4.425781 0 8 3.574219 8 8 0 4.421875-3.574219 8-8 8zm0 0" fill="#f6bb42"/><path d="m359.921875 272.078125v79.921875h-48v-320h48zm0 0" fill="#ffce54"/><path d="m104 272.078125v79.921875h-48v-320h48zm0 0" fill="#ffce54"/><path d="m336.222656 327.839844c-4.421875 0-8.039062-3.574219-8.039062-8 0-4.425782 3.535156-8 7.953125-8h.085937c4.417969 0 8 3.574218 8 8 0 4.425781-3.582031 8-8 8zm0 0" fill="#f6bb42"/><path d="m80.246094 327.839844c-4.421875 0-8.039063-3.574219-8.039063-8 0-4.425782 3.535157-8 7.953125-8h.085938c4.417968 0 8 3.574218 8 8 0 4.425781-3.582032 8-8 8zm0 0" fill="#f6bb42"/><path d="m336.222656 71.96875c-4.421875 0-8.039062-3.578125-8.039062-8 0-4.425781 3.535156-8 7.953125-8h.085937c4.417969 0 8 3.574219 8 8 0 4.421875-3.582031 8-8 8zm0 0" fill="#f6bb42"/><path d="m80.246094 71.96875c-4.421875 0-8.039063-3.578125-8.039063-8 0-4.425781 3.535157-8 7.953125-8h.085938c4.417968 0 8 3.574219 8 8 0 4.421875-3.582032 8-8 8zm0 0" fill="#f6bb42"/></svg>