<svg id="Capa_1" enable-background="new 0 0 512 512" height="512" viewBox="0 0 512 512" width="512" xmlns="http://www.w3.org/2000/svg"><g><path d="m228.086 261.991s9.156 1.318 49.012-30.044c32.161-25.307 73.109-28.367 104.296-17.399 38.997 13.716 84.484 50.412 89.662 132.885.351 5.583-5.934 9.034-10.451 5.734-13.734-10.033-41.02-22.714-85.315-13.928-69.553 13.797-87.844-72.191-147.204-77.248z" fill="#72d4a2"/><path d="m471.06 347.43c.345 5.582-5.937 9.032-10.453 5.734-5.105-3.724-12.077-7.814-21.099-11.032-9.012-73.091-51.606-106.521-88.415-119.46-14.99-5.267-32.232-7.307-49.668-5.176 26.864-11.519 56.244-11.296 79.972-2.953 38.991 13.721 84.477 50.419 89.663 132.887z" fill="#27cc81"/><g><path d="m25.391 182.231s9.411 21.293 30.342 34.115c3.476 2.129 7.97-.082 8.355-4.14 1.191-12.576 5.197-36.989 18.66-55.215 0 0-43.964-17.65-57.357 25.24z" fill="#27cc81"/></g><g><g><g><path d="m202.043 401.112c-19.685 0-33.452-5.028-34.061-5.254-3.941-1.465-5.947-5.846-4.483-9.787 1.462-3.934 5.833-5.942 9.768-4.49.135.051 13.693 4.936 32.383 4.242 24.656-.892 46.306-10.552 64.347-28.714 2.963-2.983 7.783-2.999 10.764-.035 2.982 2.962 2.999 7.781.036 10.764-26.198 26.371-55.401 32.621-75.287 33.221-1.175.036-2.331.053-3.467.053z" fill="#d46a50"/></g><g><ellipse cx="301.844" cy="329.172" fill="#e33c53" rx="51.14" ry="41.289" transform="matrix(.707 -.707 .707 .707 -144.352 309.848)"/></g><g><path d="m331.039 358.365c23.812-23.812 23.086-49.23 6.961-65.355-3.927-3.927-8.401-6.936-13.269-8.899 6.124 15.134 2.16 34.065-15.86 52.086-18.02 18.02-36.958 21.99-52.092 15.866 1.963 4.868 4.973 9.342 8.899 13.269 16.125 16.124 41.549 16.845 65.361-6.967z" fill="#ab283a"/></g><g><g><path d="m289.161 324.1c-1.948 0-3.896-.743-5.382-2.229-2.973-2.973-2.973-7.792 0-10.765 9.929-9.929 21.997-12.897 32.281-7.941 3.787 1.825 5.377 6.375 3.552 10.162-1.825 3.785-6.375 5.38-10.162 3.551-4.252-2.049-9.684-.23-14.907 4.993-1.486 1.485-3.434 2.229-5.382 2.229z" fill="#ab283a"/></g></g></g></g><g><g><g><ellipse cx="180.423" cy="119.519" fill="#e33c53" rx="51.14" ry="41.289" transform="matrix(.085 -.996 .996 .085 46.065 289.182)"/></g><g><path d="m221.562 123.012c2.85-33.554-14.094-52.516-36.816-54.445-5.533-.47-10.894.114-15.881 1.752 14.438 7.62 23.614 24.647 21.458 50.04s-14.073 40.637-29.59 45.714c4.639 2.455 9.825 3.935 15.358 4.405 22.723 1.929 42.622-13.912 45.471-47.466z" fill="#ab283a"/></g><g><g><path d="m162.559 125.613c-.216 0-.433-.009-.652-.028-4.189-.355-7.296-4.039-6.941-8.228 1.188-13.992 8.499-24.042 19.556-26.882 4.071-1.05 8.22 1.406 9.266 5.478 1.046 4.071-1.407 8.22-5.478 9.266-4.571 1.174-7.551 6.068-8.175 13.427-.337 3.969-3.663 6.967-7.576 6.967z" fill="#ab283a"/></g></g></g></g><path d="m204.598 222.309s15.704-63.931-39.39-108.991c-64.791-52.991-167.186 6.202-139.817 68.913 0 0 38.194-51.115 68.27 7.369 25.919 50.4 38.85 74.05 110.937 32.709z" fill="#72d4a2"/><path d="m204.596 222.307c-9.692 5.551-18.308 9.935-26.031 13.234 1.695-8.2 11.498-66.21-39.6-108.002-27.98-22.885-62.973-24.854-91.5-14.634 30.253-23.362 80.286-30.223 117.745.416 55.097 45.059 39.386 108.986 39.386 108.986z" fill="#27cc81"/><g><path d="m352.581 68.377s-4.947-61.346 44.946-66.213c36.738-3.584 71.826-1.89 87.775-.748 4.473.32 7.171 5.065 5.201 9.094-12.899 26.384-58.914 103.613-137.922 57.867z" fill="#72d4a2"/><path d="m490.505 10.514c-12.899 26.376-58.913 103.608-137.921 57.858 0 0-.142-1.705-.132-4.577 57.127 14.289 92.728-37.418 106.744-63.612 10.89.264 19.932.792 26.102 1.238 4.476.314 7.176 5.064 5.207 9.093z" fill="#27cc81"/></g><path d="m153.859 295.868c-4.78 9.861-9.349 19.875-13.684 30.047-41.697 97.833-48.117 174.657-48.37 177.879-.329 4.19 2.8 7.851 6.99 8.182.203.016.405.024.607.024 3.931 0 7.264-3.026 7.579-7.012.061-.769 6.566-77.992 47.418-173.622 4.093-9.582 8.391-19.025 12.888-28.323 1.422-1.879 9.003-11.283 24.268-19.962 3.525-2.024 31.272-17.441 87.205-29.983 20.944-4.697 49.856-8.628 76.801-2.283 2.196 10.807 8.711 36.572 23.697 55.154 1.504 1.865 3.707 2.833 5.929 2.833 1.678 0 3.366-.552 4.774-1.687 3.273-2.639 3.786-7.431 1.147-10.703-9.83-12.189-15.551-28.682-18.567-39.993 22.941 9.959 39.894 28.369 50.382 54.816 1.184 2.987 4.049 4.808 7.077 4.808.934 0 1.884-.173 2.804-.538 3.908-1.55 5.819-5.973 4.27-9.881-12.548-31.639-33.371-53.38-61.89-64.616-27.504-10.837-61.221-11.732-100.214-2.658-23.082 5.37-52.04 13.317-74.876 23.777-5.673 2.24-10.741 4.688-15.26 7.202 15.305-27.436 32.425-53.428 51.254-77.757 3.979-4.578 11.321-11.824 22.866-18.949 17.499-10.801 48.498-23.512 96.852-22.789.04.001.078.001.118.001 4.15 0 7.545-3.332 7.608-7.497.064-4.203-3.292-7.662-7.495-7.725-35.602-.536-62.853 5.639-83.308 13.975 9.947-10.594 20.26-20.813 30.945-30.625.296-.234 1.938-1.559 4.259-3.871 15.871-14.289 32.519-27.721 49.937-40.225.134-.131 7.053-6.749 20.464-15.264 4.734 1.371 13.724 3.249 27.475 3.249 3.836 0 8.047-.147 12.633-.492 4.192-.314 7.335-3.967 7.02-8.16-.315-4.191-3.958-7.333-8.16-7.02-6.647.499-12.349.527-17.153.302 10.357-5.025 22.562-10.007 36.603-14.22 4.026-1.208 6.311-5.452 5.103-9.478-1.208-4.027-5.454-6.312-9.478-5.103-55.07 16.524-83.855 44.041-85.112 45.262-6.465 4.678-12.817 9.491-19.08 14.408 1.587-8.21 1.636-17.482-1.015-27.643-1.061-4.067-5.22-6.507-9.286-5.443-4.068 1.06-6.505 5.218-5.444 9.286 8.07 30.935-17.095 51.576-18.225 52.483-21.349 19.504-41.602 40.892-60.02 63.423-9.82 12.013-19.209 24.455-28.172 37.285-22.834-47.322-55.683-67.634-80.153-76.319-28.949-10.274-52.411-6.982-53.395-6.837-4.159.613-7.033 4.482-6.42 8.64.613 4.16 4.477 7.032 8.64 6.42.201-.03 19.946-2.789 44.737 5.662-5.188.759-11.346 1.297-18.417 1.297-4.204 0-7.612 3.407-7.612 7.612 0 4.204 3.408 7.612 7.612 7.612 20.313 0 34.226-3.955 40.568-6.238 9.657 5.821 18.45 13.107 26.366 21.816-8.037 2.422-21.038 4.445-36.433-.247-4.021-1.231-8.275 1.041-9.5 5.061-1.225 4.021 1.041 8.275 5.062 9.5 8.304 2.531 16.08 3.475 23.063 3.475 12.224 0 22.006-2.892 27.919-5.228 6.811 9.553 12.807 20.404 17.967 32.538-15.438 23.479-29.641 48.562-42.168 74.362z" fill="#d46a50"/><g><g><ellipse cx="398.352" cy="148.552" fill="#e33c53" rx="56.867" ry="45.913"/></g><g><path d="m398.354 194.463c37.446 0 56.862-20.557 56.862-45.915 0-6.175-1.152-12.06-3.436-17.431-7.085 16.715-25.087 28.484-53.426 28.484s-46.351-11.769-53.435-28.484c-2.284 5.372-3.436 11.256-3.436 17.431 0 25.358 19.425 45.915 56.871 45.915z" fill="#ab283a"/></g><g><g><path d="m421.989 149.687c-3.146 0-6.089-1.964-7.185-5.102-1.858-5.317-7.855-8.367-16.451-8.367-4.204 0-7.612-3.407-7.612-7.612 0-4.204 3.408-7.612 7.612-7.612 15.236 0 26.758 6.941 30.822 18.567 1.387 3.968-.706 8.309-4.674 9.697-.831.291-1.679.429-2.512.429z" fill="#ab283a"/></g></g></g><g><g><ellipse cx="101.014" cy="368.007" fill="#e33c53" rx="56.867" ry="45.913" transform="matrix(.402 -.916 .916 .402 -276.576 312.702)"/></g><g><path d="m143.059 386.446c15.041-34.293 4.013-60.33-19.21-70.515-5.655-2.48-11.507-3.789-17.343-3.855 12.462 13.202 16.009 34.415 4.626 60.367s-29.395 37.72-47.548 37.495c4.002 4.249 8.928 7.668 14.583 10.148 23.223 10.185 49.852.653 64.892-33.64z" fill="#ab283a"/></g><g><g><path d="m82.744 367.609c-1.021 0-2.058-.206-3.053-.643-3.85-1.688-5.602-6.177-3.914-10.028 6.12-13.952 17.103-21.732 29.384-20.768 4.191.323 7.327 3.984 7.002 8.174-.324 4.192-3.987 7.329-8.175 7.003-5.618-.42-10.817 3.833-14.27 11.706-1.252 2.855-4.044 4.556-6.974 4.556z" fill="#ab283a"/></g></g></g><g><g><ellipse cx="149.947" cy="442.455" fill="#e33c53" rx="45.913" ry="56.867"/></g><g><path d="m195.857 442.453c0-37.446-20.557-56.862-45.915-56.862-6.175 0-12.06 1.152-17.431 3.436 16.715 7.085 28.484 25.087 28.484 53.426s-11.769 46.351-28.484 53.435c5.372 2.284 11.256 3.436 17.431 3.436 25.358 0 45.915-19.425 45.915-56.871z" fill="#ab283a"/></g><g><g><path d="m130.001 450.066c-4.204 0-7.612-3.407-7.612-7.612 0-15.237 6.941-26.759 18.567-30.823 3.968-1.389 8.309.706 9.696 4.674s-.706 8.31-4.674 9.697c-5.317 1.858-8.366 7.854-8.366 16.452 0 4.205-3.408 7.612-7.611 7.612z" fill="#ab283a"/></g></g></g><g><g><ellipse cx="180.423" cy="385.586" fill="#e33c53" rx="45.913" ry="56.867" transform="matrix(.987 -.162 .162 .987 -59.985 34.255)"/></g><g><path d="m225.729 378.159c-6.056-36.953-29.483-52.788-54.507-48.687-6.094.999-11.714 3.087-16.646 6.21 17.641 4.288 32.166 20.15 36.749 48.116s-4.118 47.644-19.467 57.339c5.67 1.385 11.664 1.57 17.757.572 25.025-4.102 42.171-26.596 36.114-63.55z" fill="#ab283a"/></g><g><g><path d="m160.731 396.424c-3.662 0-6.891-2.65-7.502-6.382-2.464-15.035 2.522-27.528 13.337-33.418 3.691-2.013 8.315-.649 10.325 3.044 2.011 3.691.648 8.314-3.044 10.324-4.947 2.695-6.987 9.105-5.596 17.589.68 4.149-2.132 8.062-6.281 8.742-.416.068-.83.101-1.239.101z" fill="#ab283a"/></g></g></g></g></svg>