<svg id="Layer_1" height="512" viewBox="0 0 512 512" width="512" xmlns="http://www.w3.org/2000/svg" data-name="Layer 1"><path d="m411.62 76.67a2 2 0 0 0 -3.94-.05c-16.46 85.63-67.25 132.55-67.25 132.55l-23.85 42.73-20.9 24.9v.01a483.819 483.819 0 0 1 -2.91 62.27l59.68-76.58c67.5-80.69 63.44-158.24 59.17-185.83z" fill="#75894d"/><path d="m207.48 238.87-39.57-24.6h-.01c-28.34-16.77-51.34-74.6-61.73-104.72a3.377 3.377 0 0 0 -6.57 1.13c.04 92.7 42.12 123.81 77.85 154.62l30.87 32.45c35.68 54.76 5.67 76.99 5.67 76.99a154.192 154.192 0 0 0 16.04 37.59l.01-.01s20.44-54.1 17.04-120.54c-5.81-20.46-21.71-40.81-39.6-52.91z" fill="#75894d"/><path d="m345.07 451.14c-25.56 5.44-44.64 4.76-58.33 1.98l-.06-.2c-9.21 2.82-14.88 2.63-14.88 2.63a52.082 52.082 0 0 1 -13.56.39h-.04a129.405 129.405 0 0 1 -30.43-3.65l-.07.3c-13.83 3.2-33.65 4.32-60.77-1.45-91.69-19.54-137.54 43.86-137.54 43.86h453.22s-45.85-63.4-137.54-43.86z" fill="#9b6a5f"/><ellipse cx="461.63" cy="112.05" fill="#8cb6f8" rx="19.84" ry="19.86"/><path d="m340.62 366.73c-49.38 90.57-66.57 88.82-68.61 88.79a158.622 158.622 0 0 1 -5.22-23.41c5.85-9.64 11.04-22.35 15.34-37.34h.01c20.7-7.36 43.58-58.57 58.22-86.16a117.332 117.332 0 0 1 14.86-22.98 140.693 140.693 0 0 1 30.56-27.21c23.95-16 61.11-9.26 84.57-2.41a4.712 4.712 0 0 1 -.58 9.17c-30.97 4.85-87.39 23.67-125.64 95.04q-1.785 3.33-3.51 6.51z" fill="#51b762"/><path d="m441.79 193.81a14.225 14.225 0 1 1 -14.21 14.23 14.218 14.218 0 0 1 14.21-14.23z" fill="#8cb6f8"/><path d="m428.31 320.5a2.531 2.531 0 0 1 2.11 4.41c-24.4 21.05-54.29 38.74-75.77 70.79-25.93 38.7-52.17 52.39-67.97 57.22-9.21 2.82-14.88 2.63-14.88 2.63.02-.03.09-.03.21-.03 2.04.03 19.23 1.78 68.61-88.79 26.09-31.54 69.41-42.77 87.69-46.23z" fill="#5fcda4"/><ellipse cx="401.02" cy="392.83" fill="#8cb6f8" rx="9.7" ry="9.71"/><path d="m355.22 285.63a117.332 117.332 0 0 0 -14.86 22.98c-14.64 27.59-37.52 78.8-58.22 86.16a344.852 344.852 0 0 0 10.63-55.69s25.67-19.15 23.81-87.18c-1.76-64.22-20.97-109.56 31.68-160.48a2.658 2.658 0 0 1 4.29 2.96c-8.58 20.03-22.49 63.12-12.12 114.79q1.23 6.135 2.93 12.42a407.649 407.649 0 0 1 9.09 40.91c1.45 8.84 2.32 16.53 2.77 23.13z" fill="#4ca987"/><path d="m308.61 55.48a14.225 14.225 0 1 1 -14.21 14.23 14.227 14.227 0 0 1 14.21-14.23z" fill="#8cb6f8"/><path d="m295.68 276.81a483.819 483.819 0 0 1 -2.91 62.27 344.852 344.852 0 0 1 -10.63 55.69h-.01c-4.3 14.99-9.49 27.7-15.34 37.34-2.78-18.75-3.02-41.53 1.45-68.96 13.26-81.4-.96-146.19-23.36-195.02a.077.077 0 0 0 -.01-.03c-.61-1.73-26.63-76.91 18.45-149.5a3.36 3.36 0 0 1 6.16 2.37c-4.66 26.32-12.76 69.66 5.06 123.35 14.01 42.22 20.43 88.7 21.14 132.48z" fill="#448e70"/><path d="m266.79 432.11a158.622 158.622 0 0 0 5.22 23.41c-.12 0-.19 0-.21.03 0 0-23.16-12.13-41.77-43.22l.01-.01s20.44-54.1 17.04-120.54a253.658 253.658 0 0 0 -10.76-62.25c-18.16-58.46-57.06-130.55-74.31-161.16a3.359 3.359 0 0 1 5.11-4.2c18.82 16.07 53.2 50.42 77.75 103.93a.077.077 0 0 1 .01.03c22.4 48.83 36.62 113.62 23.36 195.02-4.47 27.43-4.23 50.21-1.45 68.96z" fill="#90ba4f"/><path d="m207.48 238.87a128.539 128.539 0 0 1 2.1 48.18c-.5 3.64-.92 7.2-1.26 10.7-3.01 30.77-.18 56.2 5.67 76.99a154.192 154.192 0 0 0 16.04 37.59c18.61 31.09 41.77 43.22 41.77 43.22a52.082 52.082 0 0 1 -13.56.39h-.04c-17.97-1.56-49.25-11.86-65.41-61.84a.735.735 0 0 1 -.02-.08c-.05-.18-.18-.65-.44-1.38a.161.161 0 0 0 -.03-.09 193.673 193.673 0 0 1 -6.09-26.23c-1.55-9.42-2.75-18.1-3.71-26.17-.95-8.09-1.66-15.56-2.2-22.55-1.59-20.55-1.77-36.89-2.85-52.3-1.16-16.71-3.37-32.32-9.54-51.03h-.01c-4.08-12.39-9.91-26.14-18.33-42.46a4.941 4.941 0 0 1 7.29-6.28c16.73 12.36 41.6 36.22 50.62 73.34z" fill="#4ca987"/><path d="m258.2 455.94a129.405 129.405 0 0 1 -30.43-3.65c-76.09-18.88-83.14-104.66-83.14-104.66 35.93 17.83 45.61 39.07 47.67 44.92a.161.161 0 0 1 .03.09c.14.46.29.92.44 1.38a.735.735 0 0 0 .02.08c16.16 49.98 47.44 60.28 65.41 61.84z" fill="#5fcda4"/><path d="m208.32 297.75c35.68 54.76 5.67 76.99 5.67 76.99-5.85-20.79-8.68-46.22-5.67-76.99z" fill="#407760"/><path d="m186.21 366.32a193.673 193.673 0 0 0 6.09 26.23c-2.06-5.85-11.74-27.09-47.67-44.92q-2.655-1.32-5.5-2.61c-34.05-15.4-43.85-66-46.66-92.83a2.859 2.859 0 0 1 5.44-1.5c5.71 12.38 14.94 30.13 26.96 45.57a131.307 131.307 0 0 0 23.43 22.68 202.687 202.687 0 0 0 34.2 21.21c.96 8.07 2.16 16.75 3.71 26.17z" fill="#5e9967"/><path d="m180.3 317.6c.54 6.99 1.25 14.46 2.2 22.55a202.687 202.687 0 0 1 -34.2-21.21s1.69-22.74-6.13-42.88a4.424 4.424 0 0 1 6.66-5.25c11.96 8.52 28.46 23.74 31.47 46.79z" fill="#5fcda4"/><path d="m149.19 103.86a14.225 14.225 0 1 1 -14.21 14.23 14.218 14.218 0 0 1 14.21-14.23z" fill="#8cb6f8"/><ellipse cx="111.22" cy="408.14" fill="#75c0e3" rx="19.84" ry="19.86"/><path d="m47.58 307.06a14.225 14.225 0 1 1 -14.21 14.23 14.218 14.218 0 0 1 14.21-14.23z" fill="#8cb6f8"/><path d="m147.823 448.165c-78.947-7.741-118.433 46.835-118.433 46.835h30s29.484-40.751 88.433-46.835z" fill="#7f564f"/><g fill="#f4f8fc"><path d="m191.762 481.826h-72.162a6 6 0 0 1 0-12h72.162a6 6 0 0 1 0 12z"/><path d="m99.429 481.826h-5.146a6 6 0 0 1 0-12h5.146a6 6 0 0 1 0 12z"/></g></svg>