<svg id="svg8" height="512" viewBox="0 0 16.933333 16.933334" width="512" xmlns="http://www.w3.org/2000/svg" xmlns:svg="http://www.w3.org/2000/svg"><g id="layer6"><circle id="path1013" cx="8.467" cy="9.409" r=".265"/><circle id="circle1015" cx="9.525" cy="9.409" r=".265"/><circle id="circle1017" cx="12.171" cy="9.317" r=".265"/><circle id="circle1019" cx="13.229" cy="9.186" r=".265"/><path id="path3254" d="m.51757812 6.2792969a.26460981.26460981 0 0 0 -.25390624.2597656v2.6464844c.00000009.3042357.2181227.5311383.49414062.7050781.2760179.17394.6460856.318967 1.1035156.451172.9148602.264411 2.1812857.466621 3.6621094.583984l.041016-.527343c-1.4565138-.115437-2.6985187-.316441-3.556641-.5644536-.4290612-.1240062-.7615299-.2612708-.9667969-.390625-.20526695-.1293543-.24804684-.2268875-.24804685-.2578125v-1.9277344c.27300975.1667271.62539105.3114275 1.06835935.4394531.9148601.2644106 2.1812856.4646683 3.6621094.5820313l.0410156-.5273438c-1.4565135-.1154362-2.6985183-.3164407-3.5566406-.5644531-.4290612-.1240062-.7615299-.2612708-.9667969-.390625-.20526692-.1293542-.24804684-.2268873-.24804685-.2578125a.26460981.26460981 0 0 0 -.27539063-.2597656z" font-variant-ligatures="normal" font-variant-position="normal" font-variant-caps="normal" font-variant-numeric="normal" font-variant-alternates="normal" font-feature-settings="normal" text-indent="0" text-align="start" text-decoration-line="none" text-decoration-style="solid" text-decoration-color="rgb(0,0,0)" text-transform="none" text-orientation="mixed" white-space="normal" shape-padding="0" isolation="auto" mix-blend-mode="normal" solid-color="rgb(0,0,0)" solid-opacity="1" vector-effect="none"/><path id="path3256" d="m16.392578 6.2792969a.26460981.26460981 0 0 0 -.253906.2597656c0 .030923-.04085.1284668-.246094.2578125-.205241.1293457-.53778.2666232-.966797.390625-.858033.2480036-2.100253.4490048-3.55664.5644531l.04101.5273438c1.480702-.1173755 2.747342-.3176279 3.662115-.5820313.442904-.1280158.793426-.2727424 1.066406-.4394531v1.9277344c0 .030923-.04085.1284668-.246094.2578125-.205242.1293456-.53778.2666232-.966797.390625-.858033.2480036-2.100254.4490046-3.55664.5644536l.04101.527343c1.480697-.117375 2.747337-.319581 3.66211-.583984.457386-.132202.825569-.277238 1.101562-.451172.275993-.1739339.494141-.400859.494141-.7050781v-2.6464844a.26460981.26460981 0 0 0 -.275386-.2597656z" font-variant-ligatures="normal" font-variant-position="normal" font-variant-caps="normal" font-variant-numeric="normal" font-variant-alternates="normal" font-feature-settings="normal" text-indent="0" text-align="start" text-decoration-line="none" text-decoration-style="solid" text-decoration-color="rgb(0,0,0)" text-transform="none" text-orientation="mixed" white-space="normal" shape-padding="0" isolation="auto" mix-blend-mode="normal" solid-color="rgb(0,0,0)" solid-opacity="1" vector-effect="none"/><path id="path3258" d="m8.4667969 4.6875c-2.206179 0-4.2022793.1783465-5.6640625.4707031-.7308916.1461783-1.3283376.3195415-1.7636719.5253907-.21766717.1029245-.39529498.2128682-.53320312.3476562-.13790815.134788-.24218732.3088489-.2421875.5078125h.52929687c.00000002-.020224.00847-.057009.0820313-.1289063.07356116-.0718968.20663265-.1610455.39062495-.2480468.3679846-.1740026.9351116-.3432724 1.640625-.484375 1.4110268-.2822053 3.3829661-.4609375 5.5605469-.4609375 2.1775811 0 4.1495201.1787322 5.5605471.4609375.705513.1411026 1.27264.3103724 1.640625.484375.183992.087001.317064.17615.390625.2480468.07356.071897.08008.1086819.08008.1289063h.529297c-.000002-.1989636-.102328-.3730245-.240237-.5078125-.137908-.134788-.317489-.2447317-.535156-.3476562-.435334-.2058492-1.030827-.3792124-1.761719-.5253907-1.461783-.2923566-3.457883-.4707031-5.6640621-.4707031z" font-variant-ligatures="normal" font-variant-position="normal" font-variant-caps="normal" font-variant-numeric="normal" font-variant-alternates="normal" font-feature-settings="normal" text-indent="0" text-align="start" text-decoration-line="none" text-decoration-style="solid" text-decoration-color="rgb(0,0,0)" text-transform="none" text-orientation="mixed" white-space="normal" shape-padding="0" isolation="auto" mix-blend-mode="normal" solid-color="rgb(0,0,0)" solid-opacity="1" vector-effect="none"/><path id="path3260" d="m6.0859375 6.6152344c-.4353577-.0000627-.7930313.3576102-.7929687.7929687v1.4707031h.5273437v-1.4707031c-.0000215-.1493215.1163033-.2656465.265625-.265625h4.7617185c.149322-.0000215.265647.116304.265625.265625v4.0019529c.000022.149321-.116303.263694-.265625.263672h-4.7617185c-.1493221.000022-.2656468-.114351-.265625-.263672v-1.4726557h-.5273437v1.4726557c-.0000635.435359.3576102.793032.7929687.792969h4.7617185c.435359.000063.793032-.35761.792969-.792969v-4.0019529c.000063-.435359-.357611-.7930314-.792969-.7929687z" font-variant-ligatures="normal" font-variant-position="normal" font-variant-caps="normal" font-variant-numeric="normal" font-variant-alternates="normal" font-feature-settings="normal" text-indent="0" text-align="start" text-decoration-line="none" text-decoration-style="solid" text-decoration-color="rgb(0,0,0)" text-transform="none" text-orientation="mixed" white-space="normal" shape-padding="0" isolation="auto" mix-blend-mode="normal" solid-color="rgb(0,0,0)" solid-opacity="1" vector-effect="none"/><path id="path3262" d="m6.5878906 7.6738281a.26460981.26460981 0 0 0 -.2363281.2636719v.9414062h.5273437v-.6777343h3.1757818v2.4140621h-3.1757818v-.677734h-.5273437v.943359a.26460981.26460981 0 0 0 .2636719.263672h3.7031246a.26460981.26460981 0 0 0 .263672-.263672v-2.943359a.26460981.26460981 0 0 0 -.263672-.2636719h-3.7031246a.26460981.26460981 0 0 0 -.027344 0z" font-variant-ligatures="normal" font-variant-position="normal" font-variant-caps="normal" font-variant-numeric="normal" font-variant-alternates="normal" font-feature-settings="normal" text-indent="0" text-align="start" text-decoration-line="none" text-decoration-style="solid" text-decoration-color="rgb(0,0,0)" text-transform="none" text-orientation="mixed" white-space="normal" shape-padding="0" isolation="auto" mix-blend-mode="normal" solid-color="rgb(0,0,0)" solid-opacity="1" vector-effect="none"/><path id="path3264" d="m5.0273438 8.6152344c-.4352394 0-.7949224.3577233-.7949219.7929687.0000003.4352393.359676.7949229.7949219.7949219h2.1171874c.4352459.000001.7929685-.3596826.7929688-.7949219.0000004-.4352454-.3577294-.7929687-.7929688-.7929687zm0 .5292968h2.1171874c.1492629 0 .2636721.1144054.2636719.2636719-.0000001.1492627-.1144057.2656255-.2636719.265625h-2.1171874c-.1492662.0000005-.2656249-.1163623-.265625-.265625-.0000002-.1492665.1163621-.2636719.265625-.2636719z" font-variant-ligatures="normal" font-variant-position="normal" font-variant-caps="normal" font-variant-numeric="normal" font-variant-alternates="normal" font-feature-settings="normal" text-indent="0" text-align="start" text-decoration-line="none" text-decoration-style="solid" text-decoration-color="rgb(0,0,0)" text-transform="none" text-orientation="mixed" white-space="normal" shape-padding="0" isolation="auto" mix-blend-mode="normal" solid-color="rgb(0,0,0)" solid-opacity="1" vector-effect="none"/></g></svg>