<svg id="Layer_1" viewBox="0 0 64 64" xmlns="http://www.w3.org/2000/svg" data-name="Layer 1"><path d="m57.146 11.241a1 1 0 0 0 -1.828.776 11.784 11.784 0 0 1 .454 3.282 11.951 11.951 0 1 1 -15.71-11.35 1 1 0 0 0 -.392-1.949 18.465 18.465 0 0 0 -16.144 12.784 18.435 18.435 0 0 0 -18.776 8.806 1 1 0 0 0 1.588 1.2 11.84 11.84 0 0 1 8.7-3.761 11.956 11.956 0 1 1 -8.884 19.944 1 1 0 0 0 -1.613 1.163 18.548 18.548 0 0 0 16.1 9.382 18.746 18.746 0 0 0 2.82-.214 18.562 18.562 0 0 0 13.611 10.681 1.043 1.043 0 0 0 .175.015 1 1 0 0 0 .442-1.9 11.951 11.951 0 1 1 17.232-10.717 11.66 11.66 0 0 1 -.321 2.737 1 1 0 0 0 1.843.727 18.492 18.492 0 0 0 -1.425-20.268 18.466 18.466 0 0 0 2.125-21.338zm-4.206 21.939a16.51 16.51 0 0 1 3.66 13.236 13.954 13.954 0 1 0 -24.628 11.568 16.568 16.568 0 0 1 -6.966-8.168 1 1 0 0 0 -1.125-.615 16.755 16.755 0 0 1 -3.24.317 16.52 16.52 0 0 1 -9.8-3.23 13.949 13.949 0 1 0 .3-26.718 16.4 16.4 0 0 1 12.889-2.661 1.007 1.007 0 0 0 1.17-.723 16.473 16.473 0 0 1 8.466-10.462 13.954 13.954 0 1 0 23.784 12.565 16.461 16.461 0 0 1 -4.466 13.554 1 1 0 0 0 -.044 1.337z"/><path d="m36.768 14.612a7.75 7.75 0 1 0 7.75-7.75 7.758 7.758 0 0 0 -7.75 7.75zm13.5 0a5.75 5.75 0 1 1 -5.75-5.75 5.757 5.757 0 0 1 5.75 5.75z"/><path d="m22.951 32.684a7.751 7.751 0 1 0 -7.75 7.75 7.759 7.759 0 0 0 7.75-7.75zm-13.5 0a5.751 5.751 0 1 1 5.751 5.75 5.757 5.757 0 0 1 -5.752-5.75z"/><path d="m35.157 49.027a7.75 7.75 0 1 0 7.75-7.75 7.758 7.758 0 0 0 -7.75 7.75zm13.5 0a5.75 5.75 0 1 1 -5.75-5.75 5.757 5.757 0 0 1 5.75 5.75z"/></svg>