<svg id="Layer_3" height="512" viewBox="0 0 64 64" width="512" xmlns="http://www.w3.org/2000/svg" data-name="Layer 3"><path d="m41.191 52.478-4.191-10.478h-10l-4.191 10.478a88.6 88.6 0 0 1 18.382 0z" fill="#d5cec2"/><path d="m4 16h56v26h-56z" fill="#a8b0bc"/><path d="m25 18 7-5 7 5" fill="#8892a0"/><path d="m44.273 16h17.727v-4h-23.182" fill="#4d5d7a"/><path d="m19.727 16h-17.727v-4h23.182" fill="#4d5d7a"/><path d="m60 12-15-10h-26l-15 10" fill="#243242"/><path d="m39 18h8l-15-11-15 11h8l7-5z" fill="#758190"/><path d="m17 18v4h30v-4" fill="#4d5d7a"/><path d="m17 22v24h4v-24" fill="#e7e4dd"/><path d="m43 22v24h4v-24" fill="#e7e4dd"/><path d="m25 42v-9a7 7 0 0 1 7-7 7 7 0 0 1 7 7v9" fill="#8892a0"/><path d="m29 42v-9a3 3 0 0 1 3-3 3 3 0 0 1 3 3v9" fill="#e7e4dd"/><path d="m2 44a3 3 0 0 1 3-3c.065 0 .126.015.19.019a2.772 2.772 0 0 1 .175-2.384 3.088 3.088 0 0 1 2.007-1.566 2.924 2.924 0 0 1 2.128.347 2.922 2.922 0 0 1 2.17-.338 3.04 3.04 0 0 1 2.277 2.356 2.971 2.971 0 0 1 -.726 2.566 2.978 2.978 0 0 1 .779 2 2 2 0 0 1 -2 2h-8a2 2 0 0 1 -2-2z" fill="#669e4f"/><path d="m62 44a3 3 0 0 0 -3-3c-.065 0-.126.015-.19.019a2.772 2.772 0 0 0 -.175-2.384 3.088 3.088 0 0 0 -2.007-1.566 2.924 2.924 0 0 0 -2.128.347 2.922 2.922 0 0 0 -2.17-.338 3.04 3.04 0 0 0 -2.277 2.356 2.971 2.971 0 0 0 .726 2.566 2.978 2.978 0 0 0 -.779 2 2 2 0 0 0 2 2h8a2 2 0 0 0 2-2z" fill="#669e4f"/><path d="m50 62c0-3.314-8.059-6-18-6s-18 2.686-18 6h-12c0-5.523 13.431-10 30-10s30 4.477 30 10z" fill="#cbc3b6"/><path d="m10 20a2 2 0 0 1 2 2v6a0 0 0 0 1 0 0h-4a0 0 0 0 1 0 0v-6a2 2 0 0 1 2-2z" fill="#e7e4dd"/><path d="m54 20a2 2 0 0 1 2 2v6a0 0 0 0 1 0 0h-4a0 0 0 0 1 0 0v-6a2 2 0 0 1 2-2z" fill="#e7e4dd"/><g fill="#78b75b"><path d="m12.03 37.191a3 3 0 0 0 -.36-.113 2.922 2.922 0 0 0 -2.17.338 2.924 2.924 0 0 0 -2.128-.347 3.088 3.088 0 0 0 -2.007 1.566 2.769 2.769 0 0 0 -.175 2.384c-.064-.004-.125-.019-.19-.019a3 3 0 0 0 -3 3 2 2 0 0 0 2 2h3.532a9.108 9.108 0 0 0 4.545-7.88 9.186 9.186 0 0 0 -.047-.929z"/><path d="m58.077 38.12c0-.076-.01-.149-.012-.225a2.849 2.849 0 0 0 -3.565-.479 2.922 2.922 0 0 0 -2.17-.338 3.038 3.038 0 0 0 -2.277 2.356 2.971 2.971 0 0 0 .726 2.566 2.978 2.978 0 0 0 -.779 2 2 2 0 0 0 2 2h1.532a9.108 9.108 0 0 0 4.545-7.88z"/></g></svg>